<svg width="1446" height="340" viewBox="0 0 1446 340" fill="none" xmlns="http://www.w3.org/2000/svg">
<g clip-path="url(#clip0_606_441)">
<mask id="mask0_606_441" style="mask-type:luminance" maskUnits="userSpaceOnUse" x="0" y="0" width="1446" height="340">
<path d="M1435.85 0H10.1474C4.54313 0 0 9.08795 0 20.2985V319.702C0 330.912 4.54313 340 10.1474 340H1435.85C1441.46 340 1446 330.912 1446 319.702V20.2985C1446 9.08795 1441.46 0 1435.85 0Z" fill="white"/>
</mask>
<g mask="url(#mask0_606_441)">
<path d="M1435.85 0H10.1474C4.54313 0 0 9.08795 0 20.2985V319.702C0 330.912 4.54313 340 10.1474 340H1435.85C1441.46 340 1446 330.912 1446 319.702V20.2985C1446 9.08795 1441.46 0 1435.85 0Z" fill="url(#paint0_linear_606_441)"/>
<path d="M1435.85 0H10.1474C4.54313 0 0 9.08795 0 20.2985V319.702C0 330.912 4.54313 340 10.1474 340H1435.85C1441.46 340 1446 330.912 1446 319.702V20.2985C1446 9.08795 1441.46 0 1435.85 0Z" fill="black" fill-opacity="0.1"/>
<path d="M10.1475 0.5H1435.85C1438.36 0.5 1440.77 2.54876 1442.58 6.16895C1444.38 9.75919 1445.5 14.7544 1445.5 20.2988V319.701C1445.5 325.246 1444.38 330.241 1442.58 333.831C1440.77 337.451 1438.36 339.5 1435.85 339.5H10.1475C7.63681 339.5 5.2287 337.451 3.41895 333.831C1.62421 330.241 0.5 325.246 0.5 319.701V20.2988C0.5 14.7544 1.62421 9.75919 3.41895 6.16895C5.1721 2.66198 7.48669 0.629548 9.91211 0.505859L10.1475 0.5Z" stroke="white" stroke-opacity="0.33"/>
<mask id="path-5-inside-1_606_441" fill="white">
<path d="M284.261 -98.5424L460.839 -92.9108L284.162 -96.8626L460.247 -81.5474L284.063 -95.1829L458.962 -70.283L283.865 -93.5032L457.184 -59.0199L283.471 -91.8235L454.713 -47.9534L283.075 -90.1438L451.649 -36.9858L282.58 -88.5631L447.994 -26.3139L281.988 -86.8834L443.745 -15.7422L281.297 -85.4016L438.903 -5.46603L280.506 -83.8209L433.567 4.51443L279.715 -82.3378L427.638 14.2958L278.727 -80.955L421.215 23.5836L277.739 -79.5721L414.298 32.5759L276.652 -78.188L406.888 41.27L275.565 -77.0031L399.081 49.3729L274.38 -75.8169L390.782 57.179L273.095 -74.6307L381.987 64.4902L271.711 -73.5447L372.896 71.209L270.329 -72.5565L363.509 77.5332L268.846 -71.6671L353.726 83.3627L267.364 -70.8768L343.647 88.5008L265.882 -70.0863L333.272 93.243L264.301 -69.4926L322.699 97.2939L262.719 -68.9002L311.83 100.851L261.04 -68.4066L300.861 103.717L259.359 -68.0108L289.794 105.989L257.68 -67.7153L278.53 107.768L256.001 -67.5173L267.265 108.855L254.32 -67.4184L255.902 109.25L252.641 -67.4184L244.538 109.152L250.961 -67.4184L233.174 108.36L249.28 -67.6163L221.911 106.978L247.502 -67.9119L210.745 105.001L245.922 -68.2088L199.678 102.334L244.241 -68.6033L188.807 99.1714L242.661 -69.197L178.136 95.3186L240.981 -69.7895L167.661 90.9709L239.498 -70.4809L157.385 86.0307L237.918 -71.2713L147.504 80.4968L236.534 -72.1606L137.821 74.4695L235.051 -73.0499L128.631 67.9485L233.669 -74.1372L119.638 60.8339L232.384 -75.2244L111.141 53.3247L231.198 -76.3104L103.137 45.4198L230.012 -77.5955L95.4294 37.0212L228.827 -78.8794L88.3147 28.1292L227.839 -80.2635L81.5955 18.9403L226.851 -81.6463L75.469 9.45462L225.962 -83.1281L69.8368 -0.426971L225.17 -84.6112L64.6985 -10.6041L224.479 -86.093L60.2519 -20.9779L223.788 -87.6738L56.2994 -31.6499L223.293 -89.3535L52.9398 -42.5185L222.8 -90.9342L50.173 -53.486L222.404 -92.6139L47.9992 -64.6514L222.206 -94.2936L46.418 -75.9158L222.008 -95.9733L45.5288 -87.1802L221.911 -97.752L45.2324 -98.5424L221.911 -99.4317L45.5288 -109.906L222.008 -101.111L46.418 -121.269L222.206 -102.791L47.9992 -132.433L222.404 -104.471L50.173 -143.599L222.8 -106.15L52.9398 -154.665L223.293 -107.83L56.2994 -165.436L223.788 -109.411L60.2519 -176.107L224.479 -110.993L64.6985 -186.581L225.17 -112.475L69.8368 -196.659L225.962 -114.055L75.469 -206.539L226.851 -115.438L81.5955 -216.124L227.839 -116.921L88.3147 -225.313L228.827 -118.205L95.4294 -234.107L230.012 -119.49L103.137 -242.506L231.198 -120.774L111.141 -250.51L232.384 -121.96L119.638 -258.019L233.669 -123.046L128.631 -265.033L235.051 -124.035L137.821 -271.555L236.534 -124.924L147.504 -277.583L237.918 -125.813L157.385 -283.115L239.498 -126.604L167.661 -288.056L240.981 -127.295L178.136 -292.403L242.661 -127.889L188.807 -296.257L244.241 -128.481L199.678 -299.419L245.922 -128.877L210.745 -302.087L247.502 -129.272L221.911 -304.063L249.28 -129.47L233.174 -305.446L250.961 -129.668L244.538 -306.237L252.641 -129.766L255.902 -306.435L254.32 -129.668L267.265 -305.94L256.001 -129.569L278.53 -304.854L257.68 -129.371L289.794 -303.174L259.359 -129.074L300.861 -300.802L261.04 -128.679L311.83 -297.937L262.719 -128.185L322.699 -294.38L264.301 -127.592L333.272 -290.329L265.882 -127L343.647 -285.684L267.364 -126.209L353.726 -280.447L268.846 -125.419L363.509 -274.618L270.329 -124.529L372.896 -268.393L271.711 -123.541L381.987 -261.576L273.095 -122.454L390.782 -254.264L274.38 -121.367L399.081 -246.557L275.565 -120.182L406.888 -238.356L276.652 -118.897L414.298 -229.759L277.739 -117.613L421.215 -220.767L278.727 -116.229L427.638 -211.382L279.715 -114.747L433.567 -201.698L280.506 -113.265L438.903 -191.62L281.297 -111.783L443.745 -181.344L281.988 -110.203L447.994 -170.87L282.58 -108.621L451.649 -160.1L283.075 -106.941L454.713 -149.133L283.471 -105.36L457.184 -138.066L283.865 -103.68L458.962 -126.901L284.063 -102.001L460.247 -115.537L284.162 -100.222L460.839 -104.274L284.261 -98.5424Z"/>
</mask>
<path d="M284.261 -98.5424L460.839 -92.9108L284.162 -96.8626L460.247 -81.5474L284.063 -95.1829L458.962 -70.283L283.865 -93.5032L457.184 -59.0199L283.471 -91.8235L454.713 -47.9534L283.075 -90.1438L451.649 -36.9858L282.58 -88.5631L447.994 -26.3139L281.988 -86.8834L443.745 -15.7422L281.297 -85.4016L438.903 -5.46603L280.506 -83.8209L433.567 4.51443L279.715 -82.3378L427.638 14.2958L278.727 -80.955L421.215 23.5836L277.739 -79.5721L414.298 32.5759L276.652 -78.188L406.888 41.27L275.565 -77.0031L399.081 49.3729L274.38 -75.8169L390.782 57.179L273.095 -74.6307L381.987 64.4902L271.711 -73.5447L372.896 71.209L270.329 -72.5565L363.509 77.5332L268.846 -71.6671L353.726 83.3627L267.364 -70.8768L343.647 88.5008L265.882 -70.0863L333.272 93.243L264.301 -69.4926L322.699 97.2939L262.719 -68.9002L311.83 100.851L261.04 -68.4066L300.861 103.717L259.359 -68.0108L289.794 105.989L257.68 -67.7153L278.53 107.768L256.001 -67.5173L267.265 108.855L254.32 -67.4184L255.902 109.25L252.641 -67.4184L244.538 109.152L250.961 -67.4184L233.174 108.36L249.28 -67.6163L221.911 106.978L247.502 -67.9119L210.745 105.001L245.922 -68.2088L199.678 102.334L244.241 -68.6033L188.807 99.1714L242.661 -69.197L178.136 95.3186L240.981 -69.7895L167.661 90.9709L239.498 -70.4809L157.385 86.0307L237.918 -71.2713L147.504 80.4968L236.534 -72.1606L137.821 74.4695L235.051 -73.0499L128.631 67.9485L233.669 -74.1372L119.638 60.8339L232.384 -75.2244L111.141 53.3247L231.198 -76.3104L103.137 45.4198L230.012 -77.5955L95.4294 37.0212L228.827 -78.8794L88.3147 28.1292L227.839 -80.2635L81.5955 18.9403L226.851 -81.6463L75.469 9.45462L225.962 -83.1281L69.8368 -0.426971L225.17 -84.6112L64.6985 -10.6041L224.479 -86.093L60.2519 -20.9779L223.788 -87.6738L56.2994 -31.6499L223.293 -89.3535L52.9398 -42.5185L222.8 -90.9342L50.173 -53.486L222.404 -92.6139L47.9992 -64.6514L222.206 -94.2936L46.418 -75.9158L222.008 -95.9733L45.5288 -87.1802L221.911 -97.752L45.2324 -98.5424L221.911 -99.4317L45.5288 -109.906L222.008 -101.111L46.418 -121.269L222.206 -102.791L47.9992 -132.433L222.404 -104.471L50.173 -143.599L222.8 -106.15L52.9398 -154.665L223.293 -107.83L56.2994 -165.436L223.788 -109.411L60.2519 -176.107L224.479 -110.993L64.6985 -186.581L225.17 -112.475L69.8368 -196.659L225.962 -114.055L75.469 -206.539L226.851 -115.438L81.5955 -216.124L227.839 -116.921L88.3147 -225.313L228.827 -118.205L95.4294 -234.107L230.012 -119.49L103.137 -242.506L231.198 -120.774L111.141 -250.51L232.384 -121.96L119.638 -258.019L233.669 -123.046L128.631 -265.033L235.051 -124.035L137.821 -271.555L236.534 -124.924L147.504 -277.583L237.918 -125.813L157.385 -283.115L239.498 -126.604L167.661 -288.056L240.981 -127.295L178.136 -292.403L242.661 -127.889L188.807 -296.257L244.241 -128.481L199.678 -299.419L245.922 -128.877L210.745 -302.087L247.502 -129.272L221.911 -304.063L249.28 -129.47L233.174 -305.446L250.961 -129.668L244.538 -306.237L252.641 -129.766L255.902 -306.435L254.32 -129.668L267.265 -305.94L256.001 -129.569L278.53 -304.854L257.68 -129.371L289.794 -303.174L259.359 -129.074L300.861 -300.802L261.04 -128.679L311.83 -297.937L262.719 -128.185L322.699 -294.38L264.301 -127.592L333.272 -290.329L265.882 -127L343.647 -285.684L267.364 -126.209L353.726 -280.447L268.846 -125.419L363.509 -274.618L270.329 -124.529L372.896 -268.393L271.711 -123.541L381.987 -261.576L273.095 -122.454L390.782 -254.264L274.38 -121.367L399.081 -246.557L275.565 -120.182L406.888 -238.356L276.652 -118.897L414.298 -229.759L277.739 -117.613L421.215 -220.767L278.727 -116.229L427.638 -211.382L279.715 -114.747L433.567 -201.698L280.506 -113.265L438.903 -191.62L281.297 -111.783L443.745 -181.344L281.988 -110.203L447.994 -170.87L282.58 -108.621L451.649 -160.1L283.075 -106.941L454.713 -149.133L283.471 -105.36L457.184 -138.066L283.865 -103.68L458.962 -126.901L284.063 -102.001L460.247 -115.537L284.162 -100.222L460.839 -104.274L284.261 -98.5424Z" fill="white" fill-opacity="0.13" stroke="white" stroke-opacity="0.33" stroke-width="2" mask="url(#path-5-inside-1_606_441)"/>
<g opacity="0.8">
<path opacity="0.8" d="M96.6209 -164.097C164.044 16.7985 307.725 1.27721 503.775 31.4845C765.772 72.9869 689.898 311.79 509.669 407.96C370.879 485.591 195.806 477.912 67.6956 390.257C-56.8986 309.884 -125.459 153.112 -94.8353 33.766C-82.5885 -13.9075 43.1284 -274.428 96.6209 -164.097Z" stroke="white" stroke-opacity="0.33" stroke-width="0.844112" stroke-miterlimit="10"/>
</g>
<g opacity="0.8">
<path opacity="0.8" d="M867.901 245.753C1051.75 304.558 1128.36 181.997 1273.28 46.5285C1467.84 -133.807 1608.64 73.4557 1572.82 274.601C1548.04 431.708 1433.79 564.608 1285.71 611.152C1145.53 659.43 979.934 616.432 905.064 518.584C875.166 479.488 748.121 219.611 867.901 245.753Z" stroke="white" stroke-opacity="0.33" stroke-width="0.844112" stroke-miterlimit="10"/>
</g>
<g opacity="0.8">
<path opacity="0.8" d="M-42.6274 82.4745C145.431 186.274 244.867 97.3849 419.157 15.8388C652.922 -92.2617 773.69 133.002 706.592 303.799C657.59 438.105 516.45 525.835 351.526 526.608C194.802 531.121 23.9833 446.595 -42.0069 337.921C-68.3617 294.511 -166.912 25.7875 -42.6274 82.4745Z" stroke="white" stroke-opacity="0.33" stroke-width="0.844112" stroke-miterlimit="10"/>
</g>
<mask id="path-9-inside-2_606_441" fill="white">
<path d="M1150.28 401.759L1326.86 407.391L1150.18 403.439L1326.26 418.754L1150.08 405.119L1324.98 430.017L1149.88 406.798L1323.2 441.282L1149.49 408.478L1320.73 452.348L1149.09 410.158L1317.67 463.316L1148.6 411.739L1314.01 473.988L1148.01 413.418L1309.76 484.559L1147.32 414.9L1304.93 494.836L1146.52 416.481L1299.59 504.815L1145.73 417.964L1293.66 514.597L1144.75 419.347L1287.23 523.885L1143.76 420.73L1280.32 532.876L1142.67 422.114L1272.91 541.572L1141.58 423.299L1265.1 549.675L1140.4 424.485L1256.8 557.479L1139.11 425.67L1248.01 564.792L1137.73 426.757L1238.92 571.511L1136.35 427.745L1229.53 577.835L1134.87 428.635L1219.75 583.664L1133.38 429.425L1209.67 588.802L1131.9 430.215L1199.29 593.545L1130.32 430.808L1188.72 597.596L1128.74 431.401L1177.85 601.153L1127.06 431.895L1166.88 604.019L1125.38 432.291L1155.81 606.291L1123.7 432.586L1144.55 608.07L1122.02 432.784L1133.28 609.157L1120.34 432.883L1121.92 609.551L1118.66 432.883L1110.56 609.452L1116.98 432.883L1099.19 608.662L1115.3 432.685L1087.93 607.279L1113.52 432.39L1076.76 605.303L1111.94 432.093L1065.7 602.635L1110.26 431.697L1054.83 599.473L1108.68 431.105L1044.16 595.62L1107 430.512L1033.68 591.273L1105.52 429.821L1023.4 586.332L1103.94 429.03L1013.52 580.799L1102.55 428.141L1003.84 574.771L1101.07 427.252L994.65 568.25L1099.69 426.164L985.658 561.136L1098.4 425.077L977.16 553.626L1097.22 423.99L969.156 545.721L1096.03 422.706L961.448 537.323L1094.85 421.421L954.333 528.431L1093.86 420.038L947.615 519.241L1092.87 418.655L941.488 509.756L1091.98 417.172L935.856 499.875L1091.19 415.69L930.718 489.698L1090.5 414.209L926.271 479.322L1089.81 412.628L922.318 468.652L1089.31 410.948L918.958 457.783L1088.82 409.367L916.192 446.816L1088.42 407.688L914.018 435.65L1088.23 406.008L912.437 424.386L1088.03 404.328L911.548 413.121L1087.93 402.55L911.251 401.759L1087.93 400.87L911.548 390.396L1088.03 399.19L912.437 379.033L1088.23 397.511L914.018 367.867L1088.42 395.831L916.192 356.703L1088.82 394.151L918.958 345.636L1089.31 392.471L922.318 334.866L1089.81 390.889L926.271 324.195L1090.5 389.309L930.718 313.721L1091.19 387.827L935.856 303.643L1091.98 386.246L941.488 293.762L1092.87 384.863L947.615 284.178L1093.86 383.38L954.333 274.988L1094.85 382.096L961.448 266.195L1096.03 380.811L969.156 257.796L1097.22 379.527L977.16 249.792L1098.4 378.341L985.658 242.283L1099.69 377.254L994.65 235.268L1101.07 376.267L1003.84 228.746L1102.55 375.378L1013.52 222.719L1103.94 374.488L1023.4 217.186L1105.52 373.698L1033.68 212.245L1107 373.005L1044.16 207.898L1108.68 372.413L1054.83 204.044L1110.26 371.82L1065.7 200.883L1111.94 371.424L1076.76 198.215L1113.52 371.03L1087.93 196.239L1115.3 370.832L1099.19 194.855L1116.98 370.634L1110.56 194.065L1118.66 370.535L1121.92 193.867L1120.34 370.634L1133.28 194.361L1122.02 370.733L1144.55 195.448L1123.7 370.931L1155.81 197.128L1125.38 371.228L1166.88 199.499L1127.06 371.622L1177.85 202.365L1128.74 372.116L1188.72 205.922L1130.32 372.71L1199.29 209.973L1131.9 373.302L1209.67 214.617L1133.38 374.092L1219.75 219.854L1134.87 374.883L1229.53 225.683L1136.35 375.772L1238.92 231.908L1137.73 376.76L1248.01 238.726L1139.11 377.848L1256.8 246.038L1140.4 378.934L1265.1 253.745L1141.58 380.12L1272.91 261.946L1142.67 381.405L1280.32 270.542L1143.76 382.689L1287.23 279.533L1144.75 384.072L1293.66 288.92L1145.73 385.555L1299.59 298.604L1146.52 387.037L1304.93 308.682L1147.32 388.518L1309.76 318.958L1148.01 390.099L1314.01 329.432L1148.6 391.68L1317.67 340.202L1149.09 393.361L1320.73 351.169L1149.49 394.942L1323.2 362.236L1149.88 396.621L1324.98 373.401L1150.08 398.301L1326.26 384.764L1150.18 400.08L1326.86 396.028L1150.28 401.759Z"/>
</mask>
<path d="M1150.28 401.759L1326.86 407.391L1150.18 403.439L1326.26 418.754L1150.08 405.119L1324.98 430.017L1149.88 406.798L1323.2 441.282L1149.49 408.478L1320.73 452.348L1149.09 410.158L1317.67 463.316L1148.6 411.739L1314.01 473.988L1148.01 413.418L1309.76 484.559L1147.32 414.9L1304.93 494.836L1146.52 416.481L1299.59 504.815L1145.73 417.964L1293.66 514.597L1144.75 419.347L1287.23 523.885L1143.76 420.73L1280.32 532.876L1142.67 422.114L1272.91 541.572L1141.58 423.299L1265.1 549.675L1140.4 424.485L1256.8 557.479L1139.11 425.67L1248.01 564.792L1137.73 426.757L1238.92 571.511L1136.35 427.745L1229.53 577.835L1134.87 428.635L1219.75 583.664L1133.38 429.425L1209.67 588.802L1131.9 430.215L1199.29 593.545L1130.32 430.808L1188.72 597.596L1128.74 431.401L1177.85 601.153L1127.06 431.895L1166.88 604.019L1125.38 432.291L1155.81 606.291L1123.7 432.586L1144.55 608.07L1122.02 432.784L1133.28 609.157L1120.34 432.883L1121.92 609.551L1118.66 432.883L1110.56 609.452L1116.98 432.883L1099.19 608.662L1115.3 432.685L1087.93 607.279L1113.52 432.39L1076.76 605.303L1111.94 432.093L1065.7 602.635L1110.26 431.697L1054.83 599.473L1108.68 431.105L1044.16 595.62L1107 430.512L1033.68 591.273L1105.52 429.821L1023.4 586.332L1103.94 429.03L1013.52 580.799L1102.55 428.141L1003.84 574.771L1101.07 427.252L994.65 568.25L1099.69 426.164L985.658 561.136L1098.4 425.077L977.16 553.626L1097.22 423.99L969.156 545.721L1096.03 422.706L961.448 537.323L1094.85 421.421L954.333 528.431L1093.86 420.038L947.615 519.241L1092.87 418.655L941.488 509.756L1091.98 417.172L935.856 499.875L1091.19 415.69L930.718 489.698L1090.5 414.209L926.271 479.322L1089.81 412.628L922.318 468.652L1089.31 410.948L918.958 457.783L1088.82 409.367L916.192 446.816L1088.42 407.688L914.018 435.65L1088.23 406.008L912.437 424.386L1088.03 404.328L911.548 413.121L1087.93 402.55L911.251 401.759L1087.93 400.87L911.548 390.396L1088.03 399.19L912.437 379.033L1088.23 397.511L914.018 367.867L1088.42 395.831L916.192 356.703L1088.82 394.151L918.958 345.636L1089.31 392.471L922.318 334.866L1089.81 390.889L926.271 324.195L1090.5 389.309L930.718 313.721L1091.19 387.827L935.856 303.643L1091.98 386.246L941.488 293.762L1092.87 384.863L947.615 284.178L1093.86 383.38L954.333 274.988L1094.85 382.096L961.448 266.195L1096.03 380.811L969.156 257.796L1097.22 379.527L977.16 249.792L1098.4 378.341L985.658 242.283L1099.69 377.254L994.65 235.268L1101.07 376.267L1003.84 228.746L1102.55 375.378L1013.52 222.719L1103.94 374.488L1023.4 217.186L1105.52 373.698L1033.68 212.245L1107 373.005L1044.16 207.898L1108.68 372.413L1054.83 204.044L1110.26 371.82L1065.7 200.883L1111.94 371.424L1076.76 198.215L1113.52 371.03L1087.93 196.239L1115.3 370.832L1099.19 194.855L1116.98 370.634L1110.56 194.065L1118.66 370.535L1121.92 193.867L1120.34 370.634L1133.28 194.361L1122.02 370.733L1144.55 195.448L1123.7 370.931L1155.81 197.128L1125.38 371.228L1166.88 199.499L1127.06 371.622L1177.85 202.365L1128.74 372.116L1188.72 205.922L1130.32 372.71L1199.29 209.973L1131.9 373.302L1209.67 214.617L1133.38 374.092L1219.75 219.854L1134.87 374.883L1229.53 225.683L1136.35 375.772L1238.92 231.908L1137.73 376.76L1248.01 238.726L1139.11 377.848L1256.8 246.038L1140.4 378.934L1265.1 253.745L1141.58 380.12L1272.91 261.946L1142.67 381.405L1280.32 270.542L1143.76 382.689L1287.23 279.533L1144.75 384.072L1293.66 288.92L1145.73 385.555L1299.59 298.604L1146.52 387.037L1304.93 308.682L1147.32 388.518L1309.76 318.958L1148.01 390.099L1314.01 329.432L1148.6 391.68L1317.67 340.202L1149.09 393.361L1320.73 351.169L1149.49 394.942L1323.2 362.236L1149.88 396.621L1324.98 373.401L1150.08 398.301L1326.26 384.764L1150.18 400.08L1326.86 396.028L1150.28 401.759Z" fill="white" fill-opacity="0.43" stroke="white" stroke-opacity="0.33" stroke-width="2" mask="url(#path-9-inside-2_606_441)"/>
<path d="M644.358 57.0868L633.012 58.4284L631.676 69.7765L630.335 58.4284L618.989 57.0868L630.335 55.7513L631.676 44.4033L633.012 55.7513L644.358 57.0868Z" fill="#4FE2C1"/>
<path d="M632.515 55.8096L632.562 56.2021L632.953 56.248L640.089 57.0869L632.953 57.9316L632.562 57.9785L632.515 58.3701L631.675 65.5059L630.832 58.3701L630.785 57.9785L630.394 57.9316L623.257 57.0869L630.394 56.248L630.785 56.2021L630.832 55.8096L631.675 48.6729L632.515 55.8096Z" stroke="white" stroke-opacity="0.33"/>
<mask id="path-12-inside-3_606_441" fill="white">
<path d="M627.347 48.3806L625.222 48.6321L624.973 50.7585L624.72 48.6321L622.596 48.3806L624.72 48.1304L624.973 46.0039L625.222 48.1304L627.347 48.3806Z"/>
</mask>
<path d="M627.347 48.3806L625.222 48.6321L624.973 50.7585L624.72 48.6321L622.596 48.3806L624.72 48.1304L624.973 46.0039L625.222 48.1304L627.347 48.3806Z" fill="#4FE2C1"/>
<path d="M627.347 48.3806L627.465 49.3737L627.464 47.3875L627.347 48.3806ZM625.222 48.6321L625.105 47.639L624.321 47.7317L624.229 48.5154L625.222 48.6321ZM624.973 50.7585L623.98 50.8763L625.966 50.8752L624.973 50.7585ZM624.72 48.6321L625.713 48.5142L625.62 47.7316L624.838 47.639L624.72 48.6321ZM622.596 48.3806L622.479 47.3875L622.478 49.3737L622.596 48.3806ZM624.72 48.1304L624.837 49.1236L625.62 49.0314L625.713 48.2483L624.72 48.1304ZM624.973 46.0039L625.966 45.8872L623.98 45.886L624.973 46.0039ZM625.222 48.1304L624.229 48.2471L624.321 49.0312L625.106 49.1236L625.222 48.1304ZM627.347 48.3806L627.23 47.3875L625.105 47.639L625.222 48.6321L625.34 49.6251L627.465 49.3737L627.347 48.3806ZM625.222 48.6321L624.229 48.5154L623.979 50.6417L624.973 50.7585L625.966 50.8752L626.216 48.7488L625.222 48.6321ZM624.973 50.7585L625.966 50.6406L625.713 48.5142L624.72 48.6321L623.727 48.7499L623.98 50.8763L624.973 50.7585ZM624.72 48.6321L624.838 47.639L622.713 47.3875L622.596 48.3806L622.478 49.3737L624.603 49.6251L624.72 48.6321ZM622.596 48.3806L622.713 49.3737L624.837 49.1236L624.72 48.1304L624.603 47.1373L622.479 47.3875L622.596 48.3806ZM624.72 48.1304L625.713 48.2483L625.966 46.1218L624.973 46.0039L623.98 45.886L623.727 48.0126L624.72 48.1304ZM624.973 46.0039L623.979 46.1206L624.229 48.2471L625.222 48.1304L626.216 48.0137L625.966 45.8872L624.973 46.0039ZM625.222 48.1304L625.106 49.1236L627.23 49.3737L627.347 48.3806L627.464 47.3875L625.339 47.1373L625.222 48.1304Z" fill="white" fill-opacity="0.33" mask="url(#path-12-inside-3_606_441)"/>
<mask id="path-14-inside-4_606_441" fill="white">
<path d="M644.359 65.7945L642.233 66.046L641.983 68.1724L641.732 66.046L639.606 65.7945L641.732 65.5444L641.983 63.418L642.233 65.5444L644.359 65.7945Z"/>
</mask>
<path d="M644.359 65.7945L642.233 66.046L641.983 68.1724L641.732 66.046L639.606 65.7945L641.732 65.5444L641.983 63.418L642.233 65.5444L644.359 65.7945Z" fill="#4FE2C1"/>
<path d="M644.359 65.7945L644.477 66.7876L644.476 64.8014L644.359 65.7945ZM642.233 66.046L642.116 65.0529L641.332 65.1456L641.24 65.9293L642.233 66.046ZM641.983 68.1724L640.99 68.2897L642.977 68.2891L641.983 68.1724ZM641.732 66.046L642.725 65.9287L642.633 65.1455L641.85 65.0529L641.732 66.046ZM639.606 65.7945L639.49 64.8014L639.489 66.7876L639.606 65.7945ZM641.732 65.5444L641.849 66.5375L642.633 66.4453L642.725 65.6617L641.732 65.5444ZM641.983 63.418L642.977 63.3012L640.99 63.3007L641.983 63.418ZM642.233 65.5444L641.24 65.6611L641.332 66.4452L642.116 66.5375L642.233 65.5444ZM644.359 65.7945L644.242 64.8015L642.116 65.0529L642.233 66.046L642.351 67.0391L644.477 66.7876L644.359 65.7945ZM642.233 66.046L641.24 65.9293L640.99 68.0557L641.983 68.1724L642.977 68.2891L643.227 66.1627L642.233 66.046ZM641.983 68.1724L642.977 68.0551L642.725 65.9287L641.732 66.046L640.739 66.1633L640.99 68.2897L641.983 68.1724ZM641.732 66.046L641.85 65.0529L639.724 64.8015L639.606 65.7945L639.489 66.7876L641.615 67.0391L641.732 66.046ZM639.606 65.7945L639.723 66.7877L641.849 66.5375L641.732 65.5444L641.615 64.5512L639.49 64.8014L639.606 65.7945ZM641.732 65.5444L642.725 65.6617L642.977 63.5353L641.983 63.418L640.99 63.3007L640.739 65.4271L641.732 65.5444ZM641.983 63.418L640.99 63.5347L641.24 65.6611L642.233 65.5444L643.227 65.4276L642.977 63.3012L641.983 63.418ZM642.233 65.5444L642.116 66.5375L644.242 66.7877L644.359 65.7945L644.476 64.8014L642.35 64.5512L642.233 65.5444Z" fill="white" fill-opacity="0.33" mask="url(#path-14-inside-4_606_441)"/>
<path d="M1425.71 137.013L1414.37 138.354L1413.02 149.702L1411.68 138.354L1400.34 137.013L1411.68 135.677L1413.02 124.329L1414.37 135.677L1425.71 137.013Z" fill="#4FE2C1"/>
<path d="M1413.87 135.736L1413.92 136.127L1414.31 136.173L1421.44 137.013L1414.31 137.857L1413.92 137.904L1413.87 138.294L1413.02 145.452L1412.17 138.294L1412.13 137.904L1411.74 137.857L1404.6 137.013L1411.74 136.173L1412.13 136.127L1412.17 135.736L1413.02 128.578L1413.87 135.736Z" stroke="white" stroke-opacity="0.33"/>
<mask id="path-18-inside-5_606_441" fill="white">
<path d="M1408.7 128.305L1406.56 128.556L1406.32 130.683L1406.07 128.556L1403.94 128.305L1406.07 128.055L1406.32 125.929L1406.56 128.055L1408.7 128.305Z"/>
</mask>
<path d="M1408.7 128.305L1406.56 128.556L1406.32 130.683L1406.07 128.556L1403.94 128.305L1406.07 128.055L1406.32 125.929L1406.56 128.055L1408.7 128.305Z" fill="#4FE2C1"/>
<path d="M1408.7 128.305L1408.81 129.298L1408.81 127.312L1408.7 128.305ZM1406.56 128.556L1406.45 127.563L1405.66 127.656L1405.57 128.444L1406.56 128.556ZM1406.32 130.683L1405.33 130.801L1407.32 130.795L1406.32 130.683ZM1406.07 128.556L1407.06 128.438L1406.97 127.656L1406.19 127.563L1406.07 128.556ZM1403.94 128.305L1403.82 127.312L1403.82 129.298L1403.94 128.305ZM1406.07 128.055L1406.19 129.049L1406.97 128.957L1407.06 128.174L1406.07 128.055ZM1406.32 125.929L1407.32 125.816L1405.33 125.81L1406.32 125.929ZM1406.56 128.055L1405.57 128.168L1405.66 128.956L1406.45 129.049L1406.56 128.055ZM1408.7 128.305L1408.58 127.312L1406.45 127.563L1406.56 128.556L1406.68 129.55L1408.81 129.298L1408.7 128.305ZM1406.56 128.556L1405.57 128.444L1405.33 130.57L1406.32 130.683L1407.32 130.795L1407.56 128.669L1406.56 128.556ZM1406.32 130.683L1407.32 130.564L1407.06 128.438L1406.07 128.556L1405.08 128.675L1405.33 130.801L1406.32 130.683ZM1406.07 128.556L1406.19 127.563L1404.06 127.312L1403.94 128.305L1403.82 129.298L1405.95 129.55L1406.07 128.556ZM1403.94 128.305L1404.06 129.298L1406.19 129.049L1406.07 128.055L1405.95 127.062L1403.82 127.312L1403.94 128.305ZM1406.07 128.055L1407.06 128.174L1407.32 126.047L1406.32 125.929L1405.33 125.81L1405.08 127.937L1406.07 128.055ZM1406.32 125.929L1405.33 126.041L1405.57 128.168L1406.56 128.055L1407.56 127.943L1407.32 125.816L1406.32 125.929ZM1406.56 128.055L1406.45 129.049L1408.58 129.298L1408.7 128.305L1408.81 127.312L1406.68 127.062L1406.56 128.055Z" fill="white" fill-opacity="0.33" mask="url(#path-18-inside-5_606_441)"/>
<mask id="path-20-inside-6_606_441" fill="white">
<path d="M1425.71 145.72L1423.57 145.971L1423.33 148.098L1423.08 145.971L1420.95 145.72L1423.08 145.469L1423.33 143.343L1423.57 145.469L1425.71 145.72Z"/>
</mask>
<path d="M1425.71 145.72L1423.57 145.971L1423.33 148.098L1423.08 145.971L1420.95 145.72L1423.08 145.469L1423.33 143.343L1423.57 145.469L1425.71 145.72Z" fill="#4FE2C1"/>
<path d="M1425.71 145.72L1425.82 146.713V144.727L1425.71 145.72ZM1423.57 145.971L1423.46 144.978L1422.67 145.071L1422.58 145.859L1423.57 145.971ZM1423.33 148.098L1422.34 148.216L1424.33 148.21L1423.33 148.098ZM1423.08 145.971L1424.07 145.853L1423.98 145.071L1423.2 144.978L1423.08 145.971ZM1420.95 145.72L1420.83 144.727V146.713L1420.95 145.72ZM1423.08 145.469L1423.2 146.462L1423.98 146.37L1424.07 145.587L1423.08 145.469ZM1423.33 143.343L1424.33 143.23L1422.34 143.224L1423.33 143.343ZM1423.57 145.469L1422.58 145.582L1422.67 146.369L1423.46 146.462L1423.57 145.469ZM1425.71 145.72L1425.59 144.727L1423.46 144.978L1423.57 145.971L1423.69 146.965L1425.82 146.713L1425.71 145.72ZM1423.57 145.971L1422.58 145.859L1422.34 147.985L1423.33 148.098L1424.33 148.21L1424.57 146.084L1423.57 145.971ZM1423.33 148.098L1424.33 147.979L1424.07 145.853L1423.08 145.971L1422.09 146.09L1422.34 148.216L1423.33 148.098ZM1423.08 145.971L1423.2 144.978L1421.07 144.727L1420.95 145.72L1420.83 146.713L1422.96 146.965L1423.08 145.971ZM1420.95 145.72L1421.07 146.713L1423.2 146.462L1423.08 145.469L1422.96 144.476L1420.83 144.727L1420.95 145.72ZM1423.08 145.469L1424.07 145.587L1424.33 143.461L1423.33 143.343L1422.34 143.224L1422.09 145.351L1423.08 145.469ZM1423.33 143.343L1422.34 143.455L1422.58 145.582L1423.57 145.469L1424.57 145.356L1424.33 143.23L1423.33 143.343ZM1423.57 145.469L1423.46 146.462L1425.59 146.713L1425.71 145.72L1425.82 144.727L1423.69 144.476L1423.57 145.469Z" fill="white" fill-opacity="0.33" mask="url(#path-20-inside-6_606_441)"/>
</g>
</g>
<defs>
<linearGradient id="paint0_linear_606_441" x1="-192.347" y1="170" x2="760.5" y2="170" gradientUnits="userSpaceOnUse">
<stop stop-color="#35C95A"/>
<stop offset="1" stop-color="#0A80D2"/>
</linearGradient>
<clipPath id="clip0_606_441">
<rect width="1446" height="340" rx="170" fill="white"/>
</clipPath>
</defs>
</svg>
